# xmcd
#
# Track frame offsets:
#	150
#	14460
#	29665
#	44727
#	60902
#	71793
#	89456
#	102396
#	114853
#	130436
#	143095
#	158603
#	176534
#
# Disc length: 2516 seconds
#
# Revision: 0
# Processed by: cddbd v1.4PL0 Copyright (c) Steve Scherf et al.
# Submitted via: dBpowerAMP V4.0
#
DISCID=b309d20d
DTITLE=Damon Gray - Lookin For Trouble
DYEAR=2001
DGENRE=Country
TTITLE0=You
TTITLE1=Lookin For Trouble
TTITLE2=Take What We've Got and Run
TTITLE3=I Wouldn't Know
TTITLE4=Terrible Two's
TTITLE5=Catch Her When She's Lonely
TTITLE6=For Whats It's Worth
TTITLE7=There's Got To Be A Better Way
TTITLE8=Your Memory Walks Through Walls
TTITLE9=Yes
TTITLE10=Who Do You Think You Are
TTITLE11=When It's Your Turn To Fall
TTITLE12=My Living Is Working
EXTD=
EXTT0=
EXTT1=
EXTT2=
EXTT3=
EXTT4=
EXTT5=
EXTT6=
EXTT7=
EXTT8=
EXTT9=
EXTT10=
EXTT11=
EXTT12=
PLAYORDER=
